<svg class="marks" width="470" height="401" xmlns="http://www.w3.org/2000/svg"><g transform="translate(46,7)"><g id="g21" class="type-group"><g transform="translate(0,0)"><rect class="background" width="344" height="346" style="pointer-events: none; fill: none;"></rect><g id="g22" class="type-group"><g transform="translate(0,346)"><rect class="background" width="0" height="0" style="pointer-events: none; fill: none;"></rect><g id="g23" class="type-rule" style="pointer-events: none;"><line x1="16.136363636363637" y1="-346" x2="16.136363636363637" y2="0" style="fill: none; stroke: #d8d8d8; stroke-width: 1px; opacity: 1;"></line><line x1="42.63867488443759" y1="-346" x2="42.63867488443759" y2="0" style="fill: none; stroke: #d8d8d8; stroke-width: 1px; opacity: 1;"></line><line x1="69.14098613251154" y1="-346" x2="69.14098613251154" y2="0" style="fill: none; stroke: #d8d8d8; stroke-width: 1px; opacity: 1;"></line><line x1="95.64329738058551" y1="-346" x2="95.64329738058551" y2="0" style="fill: none; stroke: #d8d8d8; stroke-width: 1px; opacity: 1;"></line><line x1="122.14560862865947" y1="-346" x2="122.14560862865947" y2="0" style="fill: none; stroke: #d8d8d8; stroke-width: 1px; opacity: 1;"></line><line x1="148.64791987673343" y1="-346" x2="148.64791987673343" y2="0" style="fill: none; stroke: #d8d8d8; stroke-width: 1px; opacity: 1;"></line><line x1="175.1502311248074" y1="-346" x2="175.1502311248074" y2="0" style="fill: none; stroke: #d8d8d8; stroke-width: 1px; opacity: 1;"></line><line x1="201.65254237288136" y1="-346" x2="201.65254237288136" y2="0" style="fill: none; stroke: #d8d8d8; stroke-width: 1px; opacity: 1;"></line><line x1="228.1548536209553" y1="-346" x2="228.1548536209553" y2="0" style="fill: none; stroke: #d8d8d8; stroke-width: 1px; opacity: 1;"></line><line x1="254.65716486902926" y1="-346" x2="254.65716486902926" y2="0" style="fill: none; stroke: #d8d8d8; stroke-width: 1px; opacity: 1;"></line><line x1="281.1594761171032" y1="-346" x2="281.1594761171032" y2="0" style="fill: none; stroke: #d8d8d8; stroke-width: 1px; opacity: 1;"></line><line x1="307.6617873651772" y1="-346" x2="307.6617873651772" y2="0" style="fill: none; stroke: #d8d8d8; stroke-width: 1px; opacity: 1;"></line><line x1="334.16409861325116" y1="-346" x2="334.16409861325116" y2="0" style="fill: none; stroke: #d8d8d8; stroke-width: 1px; opacity: 1;"></line></g><g id="g24" class="type-rule" style="pointer-events: none;"><line x1="16.136363636363637" y1="0" x2="16.136363636363637" y2="6" style="fill: none; stroke: #000000; stroke-width: 1px; opacity: 1;"></line><line x1="42.63867488443759" y1="0" x2="42.63867488443759" y2="6" style="fill: none; stroke: #000000; stroke-width: 1px; opacity: 1;"></line><line x1="69.14098613251154" y1="0" x2="69.14098613251154" y2="6" style="fill: none; stroke: #000000; stroke-width: 1px; opacity: 1;"></line><line x1="95.64329738058551" y1="0" x2="95.64329738058551" y2="6" style="fill: none; stroke: #000000; stroke-width: 1px; opacity: 1;"></line><line x1="122.14560862865947" y1="0" x2="122.14560862865947" y2="6" style="fill: none; stroke: #000000; stroke-width: 1px; opacity: 1;"></line><line x1="148.64791987673343" y1="0" x2="148.64791987673343" y2="6" style="fill: none; stroke: #000000; stroke-width: 1px; opacity: 1;"></line><line x1="175.1502311248074" y1="0" x2="175.1502311248074" y2="6" style="fill: none; stroke: #000000; stroke-width: 1px; opacity: 1;"></line><line x1="201.65254237288136" y1="0" x2="201.65254237288136" y2="6" style="fill: none; stroke: #000000; stroke-width: 1px; opacity: 1;"></line><line x1="228.1548536209553" y1="0" x2="228.1548536209553" y2="6" style="fill: none; stroke: #000000; stroke-width: 1px; opacity: 1;"></line><line x1="254.65716486902926" y1="0" x2="254.65716486902926" y2="6" style="fill: none; stroke: #000000; stroke-width: 1px; opacity: 1;"></line><line x1="281.1594761171032" y1="0" x2="281.1594761171032" y2="6" style="fill: none; stroke: #000000; stroke-width: 1px; opacity: 1;"></line><line x1="307.6617873651772" y1="0" x2="307.6617873651772" y2="6" style="fill: none; stroke: #000000; stroke-width: 1px; opacity: 1;"></line><line x1="334.16409861325116" y1="0" x2="334.16409861325116" y2="6" style="fill: none; stroke: #000000; stroke-width: 1px; opacity: 1;"></line></g><g id="g25" class="type-rule" style="pointer-events: none;"></g><g id="g26" class="type-text"><text x="16.136363636363637" y="9" text-anchor="middle" dy=".9em" style="font-style: normal; font-variant: normal; font-weight: normal; font-size: 11px; line-height: normal; font-family: sans-serif; fill: #000000; opacity: 1;">1.0</text><text x="42.63867488443759" y="9" text-anchor="middle" dy=".9em" style="font-style: normal; font-variant: normal; font-weight: normal; font-size: 11px; line-height: normal; font-family: sans-serif; fill: #000000; opacity: 1;">1.5</text><text x="69.14098613251154" y="9" text-anchor="middle" dy=".9em" style="font-style: normal; font-variant: normal; font-weight: normal; font-size: 11px; line-height: normal; font-family: sans-serif; fill: #000000; opacity: 1;">2.0</text><text x="95.64329738058551" y="9" text-anchor="middle" dy=".9em" style="font-style: normal; font-variant: normal; font-weight: normal; font-size: 11px; line-height: normal; font-family: sans-serif; fill: #000000; opacity: 1;">2.5</text><text x="122.14560862865947" y="9" text-anchor="middle" dy=".9em" style="font-style: normal; font-variant: normal; font-weight: normal; font-size: 11px; line-height: normal; font-family: sans-serif; fill: #000000; opacity: 1;">3.0</text><text x="148.64791987673343" y="9" text-anchor="middle" dy=".9em" style="font-style: normal; font-variant: normal; font-weight: normal; font-size: 11px; line-height: normal; font-family: sans-serif; fill: #000000; opacity: 1;">3.5</text><text x="175.1502311248074" y="9" text-anchor="middle" dy=".9em" style="font-style: normal; font-variant: normal; font-weight: normal; font-size: 11px; line-height: normal; font-family: sans-serif; fill: #000000; opacity: 1;">4.0</text><text x="201.65254237288136" y="9" text-anchor="middle" dy=".9em" style="font-style: normal; font-variant: normal; font-weight: normal; font-size: 11px; line-height: normal; font-family: sans-serif; fill: #000000; opacity: 1;">4.5</text><text x="228.1548536209553" y="9" text-anchor="middle" dy=".9em" style="font-style: normal; font-variant: normal; font-weight: normal; font-size: 11px; line-height: normal; font-family: sans-serif; fill: #000000; opacity: 1;">5.0</text><text x="254.65716486902926" y="9" text-anchor="middle" dy=".9em" style="font-style: normal; font-variant: normal; font-weight: normal; font-size: 11px; line-height: normal; font-family: sans-serif; fill: #000000; opacity: 1;">5.5</text><text x="281.1594761171032" y="9" text-anchor="middle" dy=".9em" style="font-style: normal; font-variant: normal; font-weight: normal; font-size: 11px; line-height: normal; font-family: sans-serif; fill: #000000; opacity: 1;">6.0</text><text x="307.6617873651772" y="9" text-anchor="middle" dy=".9em" style="font-style: normal; font-variant: normal; font-weight: normal; font-size: 11px; line-height: normal; font-family: sans-serif; fill: #000000; opacity: 1;">6.5</text><text x="334.16409861325116" y="9" text-anchor="middle" dy=".9em" style="font-style: normal; font-variant: normal; font-weight: normal; font-size: 11px; line-height: normal; font-family: sans-serif; fill: #000000; opacity: 1;">7.0</text></g><g id="g27" class="type-path" style="pointer-events: none;"><path transform="translate(0.5,0.5)" d="M0,6V0H344V6" style="fill: none; stroke: #000000; stroke-width: 1px;"></path></g><g id="g28" class="type-text"><text x="172" y="35" text-anchor="middle" dy=".35em" style="font-weight: bold; font-style: normal; font-variant: normal; font-size: 11px; line-height: normal; font-family: sans-serif; fill: #000000;">Petal.Length</text></g></g></g><g id="g29" class="type-group"><g transform="translate(0,0)"><rect class="background" width="0" height="0" style="pointer-events: none; fill: none;"></rect><g id="g30" class="type-rule" style="pointer-events: none;"><line x1="0" y1="343.8787878787879" x2="344" y2="343.8787878787879" style="fill: none; stroke: #d8d8d8; stroke-width: 1px; opacity: 1;"></line><line x1="0" y1="317.66666666666663" x2="344" y2="317.66666666666663" style="fill: none; stroke: #d8d8d8; stroke-width: 1px; opacity: 1;"></line><line x1="0" y1="291.45454545454544" x2="344" y2="291.45454545454544" style="fill: none; stroke: #d8d8d8; stroke-width: 1px; opacity: 1;"></line><line x1="0" y1="265.24242424242425" x2="344" y2="265.24242424242425" style="fill: none; stroke: #d8d8d8; stroke-width: 1px; opacity: 1;"></line><line x1="0" y1="239.03030303030306" x2="344" y2="239.03030303030306" style="fill: none; stroke: #d8d8d8; stroke-width: 1px; opacity: 1;"></line><line x1="0" y1="212.8181818181818" x2="344" y2="212.8181818181818" style="fill: none; stroke: #d8d8d8; stroke-width: 1px; opacity: 1;"></line><line x1="0" y1="186.6060606060606" x2="344" y2="186.6060606060606" style="fill: none; stroke: #d8d8d8; stroke-width: 1px; opacity: 1;"></line><line x1="0" y1="160.3939393939394" x2="344" y2="160.3939393939394" style="fill: none; stroke: #d8d8d8; stroke-width: 1px; opacity: 1;"></line><line x1="0" y1="134.1818181818182" x2="344" y2="134.1818181818182" style="fill: none; stroke: #d8d8d8; stroke-width: 1px; opacity: 1;"></line><line x1="0" y1="107.96969696969698" x2="344" y2="107.96969696969698" style="fill: none; stroke: #d8d8d8; stroke-width: 1px; opacity: 1;"></line><line x1="0" y1="81.75757575757576" x2="344" y2="81.75757575757576" style="fill: none; stroke: #d8d8d8; stroke-width: 1px; opacity: 1;"></line><line x1="0" y1="55.54545454545453" x2="344" y2="55.54545454545453" style="fill: none; stroke: #d8d8d8; stroke-width: 1px; opacity: 1;"></line><line x1="0" y1="29.333333333333346" x2="344" y2="29.333333333333346" style="fill: none; stroke: #d8d8d8; stroke-width: 1px; opacity: 1;"></line><line x1="0" y1="3.121212121212119" x2="344" y2="3.121212121212119" style="fill: none; stroke: #d8d8d8; stroke-width: 1px; opacity: 1;"></line></g><g id="g31" class="type-rule" style="pointer-events: none;"><line x1="-6" y1="343.8787878787879" x2="0" y2="343.8787878787879" style="fill: none; stroke: #000000; stroke-width: 1px; opacity: 1;"></line><line x1="-6" y1="317.66666666666663" x2="0" y2="317.66666666666663" style="fill: none; stroke: #000000; stroke-width: 1px; opacity: 1;"></line><line x1="-6" y1="291.45454545454544" x2="0" y2="291.45454545454544" style="fill: none; stroke: #000000; stroke-width: 1px; opacity: 1;"></line><line x1="-6" y1="265.24242424242425" x2="0" y2="265.24242424242425" style="fill: none; stroke: #000000; stroke-width: 1px; opacity: 1;"></line><line x1="-6" y1="239.03030303030306" x2="0" y2="239.03030303030306" style="fill: none; stroke: #000000; stroke-width: 1px; opacity: 1;"></line><line x1="-6" y1="212.8181818181818" x2="0" y2="212.8181818181818" style="fill: none; stroke: #000000; stroke-width: 1px; opacity: 1;"></line><line x1="-6" y1="186.6060606060606" x2="0" y2="186.6060606060606" style="fill: none; stroke: #000000; stroke-width: 1px; opacity: 1;"></line><line x1="-6" y1="160.3939393939394" x2="0" y2="160.3939393939394" style="fill: none; stroke: #000000; stroke-width: 1px; opacity: 1;"></line><line x1="-6" y1="134.1818181818182" x2="0" y2="134.1818181818182" style="fill: none; stroke: #000000; stroke-width: 1px; opacity: 1;"></line><line x1="-6" y1="107.96969696969698" x2="0" y2="107.96969696969698" style="fill: none; stroke: #000000; stroke-width: 1px; opacity: 1;"></line><line x1="-6" y1="81.75757575757576" x2="0" y2="81.75757575757576" style="fill: none; stroke: #000000; stroke-width: 1px; opacity: 1;"></line><line x1="-6" y1="55.54545454545453" x2="0" y2="55.54545454545453" style="fill: none; stroke: #000000; stroke-width: 1px; opacity: 1;"></line><line x1="-6" y1="29.333333333333346" x2="0" y2="29.333333333333346" style="fill: none; stroke: #000000; stroke-width: 1px; opacity: 1;"></line><line x1="-6" y1="3.121212121212119" x2="0" y2="3.121212121212119" style="fill: none; stroke: #000000; stroke-width: 1px; opacity: 1;"></line></g><g id="g32" class="type-rule" style="pointer-events: none;"></g><g id="g33" class="type-text"><text x="-9" y="343.8787878787879" text-anchor="end" dy=".35em" style="font-style: normal; font-variant: normal; font-weight: normal; font-size: 11px; line-height: normal; font-family: sans-serif; fill: #000000; opacity: 1;">0.0</text><text x="-9" y="317.66666666666663" text-anchor="end" dy=".35em" style="font-style: normal; font-variant: normal; font-weight: normal; font-size: 11px; line-height: normal; font-family: sans-serif; fill: #000000; opacity: 1;">0.2</text><text x="-9" y="291.45454545454544" text-anchor="end" dy=".35em" style="font-style: normal; font-variant: normal; font-weight: normal; font-size: 11px; line-height: normal; font-family: sans-serif; fill: #000000; opacity: 1;">0.4</text><text x="-9" y="265.24242424242425" text-anchor="end" dy=".35em" style="font-style: normal; font-variant: normal; font-weight: normal; font-size: 11px; line-height: normal; font-family: sans-serif; fill: #000000; opacity: 1;">0.6</text><text x="-9" y="239.03030303030306" text-anchor="end" dy=".35em" style="font-style: normal; font-variant: normal; font-weight: normal; font-size: 11px; line-height: normal; font-family: sans-serif; fill: #000000; opacity: 1;">0.8</text><text x="-9" y="212.8181818181818" text-anchor="end" dy=".35em" style="font-style: normal; font-variant: normal; font-weight: normal; font-size: 11px; line-height: normal; font-family: sans-serif; fill: #000000; opacity: 1;">1.0</text><text x="-9" y="186.6060606060606" text-anchor="end" dy=".35em" style="font-style: normal; font-variant: normal; font-weight: normal; font-size: 11px; line-height: normal; font-family: sans-serif; fill: #000000; opacity: 1;">1.2</text><text x="-9" y="160.3939393939394" text-anchor="end" dy=".35em" style="font-style: normal; font-variant: normal; font-weight: normal; font-size: 11px; line-height: normal; font-family: sans-serif; fill: #000000; opacity: 1;">1.4</text><text x="-9" y="134.1818181818182" text-anchor="end" dy=".35em" style="font-style: normal; font-variant: normal; font-weight: normal; font-size: 11px; line-height: normal; font-family: sans-serif; fill: #000000; opacity: 1;">1.6</text><text x="-9" y="107.96969696969698" text-anchor="end" dy=".35em" style="font-style: normal; font-variant: normal; font-weight: normal; font-size: 11px; line-height: normal; font-family: sans-serif; fill: #000000; opacity: 1;">1.8</text><text x="-9" y="81.75757575757576" text-anchor="end" dy=".35em" style="font-style: normal; font-variant: normal; font-weight: normal; font-size: 11px; line-height: normal; font-family: sans-serif; fill: #000000; opacity: 1;">2.0</text><text x="-9" y="55.54545454545453" text-anchor="end" dy=".35em" style="font-style: normal; font-variant: normal; font-weight: normal; font-size: 11px; line-height: normal; font-family: sans-serif; fill: #000000; opacity: 1;">2.2</text><text x="-9" y="29.333333333333346" text-anchor="end" dy=".35em" style="font-style: normal; font-variant: normal; font-weight: normal; font-size: 11px; line-height: normal; font-family: sans-serif; fill: #000000; opacity: 1;">2.4</text><text x="-9" y="3.121212121212119" text-anchor="end" dy=".35em" style="font-style: normal; font-variant: normal; font-weight: normal; font-size: 11px; line-height: normal; font-family: sans-serif; fill: #000000; opacity: 1;">2.6</text></g><g id="g34" class="type-path" style="pointer-events: none;"><path transform="translate(0.5,0.5)" d="M-6,0H0V346H-6" style="fill: none; stroke: #000000; stroke-width: 1px;"></path></g><g id="g35" class="type-text"><text x="-35" y="173" text-anchor="middle" transform="rotate(-90 -35,173)" dy=".35em" style="font-weight: bold; font-style: normal; font-variant: normal; font-size: 11px; line-height: normal; font-family: sans-serif; fill: #000000;">Petal.Width</text></g></g></g><g id="g36" class="type-symbol"><path transform="translate(36.8382126348228,317.16666666666663)" d="M0,3.989422804014327A3.989422804014327,3.989422804014327 0 1,1 0,-3.989422804014327A3.989422804014327,3.989422804014327 0 1,1 0,3.989422804014327Z" style="fill: #1f77b4;"></path><path transform="translate(36.8382126348228,317.16666666666663)" d="M0,3.989422804014327A3.989422804014327,3.989422804014327 0 1,1 0,-3.989422804014327A3.989422804014327,3.989422804014327 0 1,1 0,3.989422804014327Z" style="fill: #1f77b4;"></path><path transform="translate(31.537750385208014,317.16666666666663)" d="M0,3.989422804014327A3.989422804014327,3.989422804014327 0 1,1 0,-3.989422804014327A3.989422804014327,3.989422804014327 0 1,1 0,3.989422804014327Z" style="fill: #1f77b4;"></path><path transform="translate(42.13867488443759,317.16666666666663)" d="M0,3.989422804014327A3.989422804014327,3.989422804014327 0 1,1 0,-3.989422804014327A3.989422804014327,3.989422804014327 0 1,1 0,3.989422804014327Z" style="fill: #1f77b4;"></path><path transform="translate(36.8382126348228,317.16666666666663)" d="M0,3.989422804014327A3.989422804014327,3.989422804014327 0 1,1 0,-3.989422804014327A3.989422804014327,3.989422804014327 0 1,1 0,3.989422804014327Z" style="fill: #1f77b4;"></path><path transform="translate(52.73959938366718,290.95454545454544)" d="M0,3.989422804014327A3.989422804014327,3.989422804014327 0 1,1 0,-3.989422804014327A3.989422804014327,3.989422804014327 0 1,1 0,3.989422804014327Z" style="fill: #1f77b4;"></path><path transform="translate(36.8382126348228,304.06060606060606)" d="M0,3.989422804014327A3.989422804014327,3.989422804014327 0 1,1 0,-3.989422804014327A3.989422804014327,3.989422804014327 0 1,1 0,3.989422804014327Z" style="fill: #1f77b4;"></path><path transform="translate(42.13867488443759,317.16666666666663)" d="M0,3.989422804014327A3.989422804014327,3.989422804014327 0 1,1 0,-3.989422804014327A3.989422804014327,3.989422804014327 0 1,1 0,3.989422804014327Z" style="fill: #1f77b4;"></path><path transform="translate(36.8382126348228,317.16666666666663)" d="M0,3.989422804014327A3.989422804014327,3.989422804014327 0 1,1 0,-3.989422804014327A3.989422804014327,3.989422804014327 0 1,1 0,3.989422804014327Z" style="fill: #1f77b4;"></path><path transform="translate(42.13867488443759,330.2727272727273)" d="M0,3.989422804014327A3.989422804014327,3.989422804014327 0 1,1 0,-3.989422804014327A3.989422804014327,3.989422804014327 0 1,1 0,3.989422804014327Z" style="fill: #1f77b4;"></path><path transform="translate(42.13867488443759,317.16666666666663)" d="M0,3.989422804014327A3.989422804014327,3.989422804014327 0 1,1 0,-3.989422804014327A3.989422804014327,3.989422804014327 0 1,1 0,3.989422804014327Z" style="fill: #1f77b4;"></path><path transform="translate(47.439137134052395,317.16666666666663)" d="M0,3.989422804014327A3.989422804014327,3.989422804014327 0 1,1 0,-3.989422804014327A3.989422804014327,3.989422804014327 0 1,1 0,3.989422804014327Z" style="fill: #1f77b4;"></path><path transform="translate(36.8382126348228,330.2727272727273)" d="M0,3.989422804014327A3.989422804014327,3.989422804014327 0 1,1 0,-3.989422804014327A3.989422804014327,3.989422804014327 0 1,1 0,3.989422804014327Z" style="fill: #1f77b4;"></path><path transform="translate(20.936825885978433,330.2727272727273)" d="M0,3.989422804014327A3.989422804014327,3.989422804014327 0 1,1 0,-3.989422804014327A3.989422804014327,3.989422804014327 0 1,1 0,3.989422804014327Z" style="fill: #1f77b4;"></path><path transform="translate(26.237288135593218,317.16666666666663)" d="M0,3.989422804014327A3.989422804014327,3.989422804014327 0 1,1 0,-3.989422804014327A3.989422804014327,3.989422804014327 0 1,1 0,3.989422804014327Z" style="fill: #1f77b4;"></path><path transform="translate(42.13867488443759,290.95454545454544)" d="M0,3.989422804014327A3.989422804014327,3.989422804014327 0 1,1 0,-3.989422804014327A3.989422804014327,3.989422804014327 0 1,1 0,3.989422804014327Z" style="fill: #1f77b4;"></path><path transform="translate(31.537750385208014,290.95454545454544)" d="M0,3.989422804014327A3.989422804014327,3.989422804014327 0 1,1 0,-3.989422804014327A3.989422804014327,3.989422804014327 0 1,1 0,3.989422804014327Z" style="fill: #1f77b4;"></path><path transform="translate(36.8382126348228,304.06060606060606)" d="M0,3.989422804014327A3.989422804014327,3.989422804014327 0 1,1 0,-3.989422804014327A3.989422804014327,3.989422804014327 0 1,1 0,3.989422804014327Z" style="fill: #1f77b4;"></path><path transform="translate(52.73959938366718,304.06060606060606)" d="M0,3.989422804014327A3.989422804014327,3.989422804014327 0 1,1 0,-3.989422804014327A3.989422804014327,3.989422804014327 0 1,1 0,3.989422804014327Z" style="fill: #1f77b4;"></path><path transform="translate(42.13867488443759,304.06060606060606)" d="M0,3.989422804014327A3.989422804014327,3.989422804014327 0 1,1 0,-3.989422804014327A3.989422804014327,3.989422804014327 0 1,1 0,3.989422804014327Z" style="fill: #1f77b4;"></path><path transform="translate(52.73959938366718,317.16666666666663)" d="M0,3.989422804014327A3.989422804014327,3.989422804014327 0 1,1 0,-3.989422804014327A3.989422804014327,3.989422804014327 0 1,1 0,3.989422804014327Z" style="fill: #1f77b4;"></path><path transform="translate(42.13867488443759,290.95454545454544)" d="M0,3.989422804014327A3.989422804014327,3.989422804014327 0 1,1 0,-3.989422804014327A3.989422804014327,3.989422804014327 0 1,1 0,3.989422804014327Z" style="fill: #1f77b4;"></path><path transform="translate(15.636363636363637,317.16666666666663)" d="M0,3.989422804014327A3.989422804014327,3.989422804014327 0 1,1 0,-3.989422804014327A3.989422804014327,3.989422804014327 0 1,1 0,3.989422804014327Z" style="fill: #1f77b4;"></path><path transform="translate(52.73959938366718,277.8484848484848)" d="M0,3.989422804014327A3.989422804014327,3.989422804014327 0 1,1 0,-3.989422804014327A3.989422804014327,3.989422804014327 0 1,1 0,3.989422804014327Z" style="fill: #1f77b4;"></path><path transform="translate(63.340523882896754,317.16666666666663)" d="M0,3.989422804014327A3.989422804014327,3.989422804014327 0 1,1 0,-3.989422804014327A3.989422804014327,3.989422804014327 0 1,1 0,3.989422804014327Z" style="fill: #1f77b4;"></path><path transform="translate(47.439137134052395,317.16666666666663)" d="M0,3.989422804014327A3.989422804014327,3.989422804014327 0 1,1 0,-3.989422804014327A3.989422804014327,3.989422804014327 0 1,1 0,3.989422804014327Z" style="fill: #1f77b4;"></path><path transform="translate(47.439137134052395,290.95454545454544)" d="M0,3.989422804014327A3.989422804014327,3.989422804014327 0 1,1 0,-3.989422804014327A3.989422804014327,3.989422804014327 0 1,1 0,3.989422804014327Z" style="fill: #1f77b4;"></path><path transform="translate(42.13867488443759,317.16666666666663)" d="M0,3.989422804014327A3.989422804014327,3.989422804014327 0 1,1 0,-3.989422804014327A3.989422804014327,3.989422804014327 0 1,1 0,3.989422804014327Z" style="fill: #1f77b4;"></path><path transform="translate(36.8382126348228,317.16666666666663)" d="M0,3.989422804014327A3.989422804014327,3.989422804014327 0 1,1 0,-3.989422804014327A3.989422804014327,3.989422804014327 0 1,1 0,3.989422804014327Z" style="fill: #1f77b4;"></path><path transform="translate(47.439137134052395,317.16666666666663)" d="M0,3.989422804014327A3.989422804014327,3.989422804014327 0 1,1 0,-3.989422804014327A3.989422804014327,3.989422804014327 0 1,1 0,3.989422804014327Z" style="fill: #1f77b4;"></path><path transform="translate(47.439137134052395,317.16666666666663)" d="M0,3.989422804014327A3.989422804014327,3.989422804014327 0 1,1 0,-3.989422804014327A3.989422804014327,3.989422804014327 0 1,1 0,3.989422804014327Z" style="fill: #1f77b4;"></path><path transform="translate(42.13867488443759,290.95454545454544)" d="M0,3.989422804014327A3.989422804014327,3.989422804014327 0 1,1 0,-3.989422804014327A3.989422804014327,3.989422804014327 0 1,1 0,3.989422804014327Z" style="fill: #1f77b4;"></path><path transform="translate(42.13867488443759,330.2727272727273)" d="M0,3.989422804014327A3.989422804014327,3.989422804014327 0 1,1 0,-3.989422804014327A3.989422804014327,3.989422804014327 0 1,1 0,3.989422804014327Z" style="fill: #1f77b4;"></path><path transform="translate(36.8382126348228,317.16666666666663)" d="M0,3.989422804014327A3.989422804014327,3.989422804014327 0 1,1 0,-3.989422804014327A3.989422804014327,3.989422804014327 0 1,1 0,3.989422804014327Z" style="fill: #1f77b4;"></path><path transform="translate(42.13867488443759,317.16666666666663)" d="M0,3.989422804014327A3.989422804014327,3.989422804014327 0 1,1 0,-3.989422804014327A3.989422804014327,3.989422804014327 0 1,1 0,3.989422804014327Z" style="fill: #1f77b4;"></path><path transform="translate(26.237288135593218,317.16666666666663)" d="M0,3.989422804014327A3.989422804014327,3.989422804014327 0 1,1 0,-3.989422804014327A3.989422804014327,3.989422804014327 0 1,1 0,3.989422804014327Z" style="fill: #1f77b4;"></path><path transform="translate(31.537750385208014,317.16666666666663)" d="M0,3.989422804014327A3.989422804014327,3.989422804014327 0 1,1 0,-3.989422804014327A3.989422804014327,3.989422804014327 0 1,1 0,3.989422804014327Z" style="fill: #1f77b4;"></path><path transform="translate(36.8382126348228,330.2727272727273)" d="M0,3.989422804014327A3.989422804014327,3.989422804014327 0 1,1 0,-3.989422804014327A3.989422804014327,3.989422804014327 0 1,1 0,3.989422804014327Z" style="fill: #1f77b4;"></path><path transform="translate(31.537750385208014,317.16666666666663)" d="M0,3.989422804014327A3.989422804014327,3.989422804014327 0 1,1 0,-3.989422804014327A3.989422804014327,3.989422804014327 0 1,1 0,3.989422804014327Z" style="fill: #1f77b4;"></path><path transform="translate(42.13867488443759,317.16666666666663)" d="M0,3.989422804014327A3.989422804014327,3.989422804014327 0 1,1 0,-3.989422804014327A3.989422804014327,3.989422804014327 0 1,1 0,3.989422804014327Z" style="fill: #1f77b4;"></path><path transform="translate(31.537750385208014,304.06060606060606)" d="M0,3.989422804014327A3.989422804014327,3.989422804014327 0 1,1 0,-3.989422804014327A3.989422804014327,3.989422804014327 0 1,1 0,3.989422804014327Z" style="fill: #1f77b4;"></path><path transform="translate(31.537750385208014,304.06060606060606)" d="M0,3.989422804014327A3.989422804014327,3.989422804014327 0 1,1 0,-3.989422804014327A3.989422804014327,3.989422804014327 0 1,1 0,3.989422804014327Z" style="fill: #1f77b4;"></path><path transform="translate(31.537750385208014,317.16666666666663)" d="M0,3.989422804014327A3.989422804014327,3.989422804014327 0 1,1 0,-3.989422804014327A3.989422804014327,3.989422804014327 0 1,1 0,3.989422804014327Z" style="fill: #1f77b4;"></path><path transform="translate(47.439137134052395,264.74242424242425)" d="M0,3.989422804014327A3.989422804014327,3.989422804014327 0 1,1 0,-3.989422804014327A3.989422804014327,3.989422804014327 0 1,1 0,3.989422804014327Z" style="fill: #1f77b4;"></path><path transform="translate(63.340523882896754,290.95454545454544)" d="M0,3.989422804014327A3.989422804014327,3.989422804014327 0 1,1 0,-3.989422804014327A3.989422804014327,3.989422804014327 0 1,1 0,3.989422804014327Z" style="fill: #1f77b4;"></path><path transform="translate(36.8382126348228,304.06060606060606)" d="M0,3.989422804014327A3.989422804014327,3.989422804014327 0 1,1 0,-3.989422804014327A3.989422804014327,3.989422804014327 0 1,1 0,3.989422804014327Z" style="fill: #1f77b4;"></path><path transform="translate(47.439137134052395,317.16666666666663)" d="M0,3.989422804014327A3.989422804014327,3.989422804014327 0 1,1 0,-3.989422804014327A3.989422804014327,3.989422804014327 0 1,1 0,3.989422804014327Z" style="fill: #1f77b4;"></path><path transform="translate(36.8382126348228,317.16666666666663)" d="M0,3.989422804014327A3.989422804014327,3.989422804014327 0 1,1 0,-3.989422804014327A3.989422804014327,3.989422804014327 0 1,1 0,3.989422804014327Z" style="fill: #1f77b4;"></path><path transform="translate(42.13867488443759,317.16666666666663)" d="M0,3.989422804014327A3.989422804014327,3.989422804014327 0 1,1 0,-3.989422804014327A3.989422804014327,3.989422804014327 0 1,1 0,3.989422804014327Z" style="fill: #1f77b4;"></path><path transform="translate(36.8382126348228,317.16666666666663)" d="M0,3.989422804014327A3.989422804014327,3.989422804014327 0 1,1 0,-3.989422804014327A3.989422804014327,3.989422804014327 0 1,1 0,3.989422804014327Z" style="fill: #1f77b4;"></path><path transform="translate(211.75346687211092,159.8939393939394)" d="M0,3.989422804014327A3.989422804014327,3.989422804014327 0 1,1 0,-3.989422804014327A3.989422804014327,3.989422804014327 0 1,1 0,3.989422804014327Z" style="fill: #ff7f0e;"></path><path transform="translate(201.15254237288136,146.7878787878788)" d="M0,3.989422804014327A3.989422804014327,3.989422804014327 0 1,1 0,-3.989422804014327A3.989422804014327,3.989422804014327 0 1,1 0,3.989422804014327Z" style="fill: #ff7f0e;"></path><path transform="translate(222.3543913713405,146.7878787878788)" d="M0,3.989422804014327A3.989422804014327,3.989422804014327 0 1,1 0,-3.989422804014327A3.989422804014327,3.989422804014327 0 1,1 0,3.989422804014327Z" style="fill: #ff7f0e;"></path><path transform="translate(174.6502311248074,173)" d="M0,3.989422804014327A3.989422804014327,3.989422804014327 0 1,1 0,-3.989422804014327A3.989422804014327,3.989422804014327 0 1,1 0,3.989422804014327Z" style="fill: #ff7f0e;"></path><path transform="translate(206.4530046224961,146.7878787878788)" d="M0,3.989422804014327A3.989422804014327,3.989422804014327 0 1,1 0,-3.989422804014327A3.989422804014327,3.989422804014327 0 1,1 0,3.989422804014327Z" style="fill: #ff7f0e;"></path><path transform="translate(201.15254237288136,173)" d="M0,3.989422804014327A3.989422804014327,3.989422804014327 0 1,1 0,-3.989422804014327A3.989422804014327,3.989422804014327 0 1,1 0,3.989422804014327Z" style="fill: #ff7f0e;"></path><path transform="translate(211.75346687211092,133.6818181818182)" d="M0,3.989422804014327A3.989422804014327,3.989422804014327 0 1,1 0,-3.989422804014327A3.989422804014327,3.989422804014327 0 1,1 0,3.989422804014327Z" style="fill: #ff7f0e;"></path><path transform="translate(137.54699537750383,212.3181818181818)" d="M0,3.989422804014327A3.989422804014327,3.989422804014327 0 1,1 0,-3.989422804014327A3.989422804014327,3.989422804014327 0 1,1 0,3.989422804014327Z" style="fill: #ff7f0e;"></path><path transform="translate(206.4530046224961,173)" d="M0,3.989422804014327A3.989422804014327,3.989422804014327 0 1,1 0,-3.989422804014327A3.989422804014327,3.989422804014327 0 1,1 0,3.989422804014327Z" style="fill: #ff7f0e;"></path><path transform="translate(169.3497688751926,159.8939393939394)" d="M0,3.989422804014327A3.989422804014327,3.989422804014327 0 1,1 0,-3.989422804014327A3.989422804014327,3.989422804014327 0 1,1 0,3.989422804014327Z" style="fill: #ff7f0e;"></path><path transform="translate(148.14791987673343,212.3181818181818)" d="M0,3.989422804014327A3.989422804014327,3.989422804014327 0 1,1 0,-3.989422804014327A3.989422804014327,3.989422804014327 0 1,1 0,3.989422804014327Z" style="fill: #ff7f0e;"></path><path transform="translate(185.25115562403698,146.7878787878788)" d="M0,3.989422804014327A3.989422804014327,3.989422804014327 0 1,1 0,-3.989422804014327A3.989422804014327,3.989422804014327 0 1,1 0,3.989422804014327Z" style="fill: #ff7f0e;"></path><path transform="translate(174.6502311248074,212.3181818181818)" d="M0,3.989422804014327A3.989422804014327,3.989422804014327 0 1,1 0,-3.989422804014327A3.989422804014327,3.989422804014327 0 1,1 0,3.989422804014327Z" style="fill: #ff7f0e;"></path><path transform="translate(211.75346687211092,159.8939393939394)" d="M0,3.989422804014327A3.989422804014327,3.989422804014327 0 1,1 0,-3.989422804014327A3.989422804014327,3.989422804014327 0 1,1 0,3.989422804014327Z" style="fill: #ff7f0e;"></path><path transform="translate(153.44838212634824,173)" d="M0,3.989422804014327A3.989422804014327,3.989422804014327 0 1,1 0,-3.989422804014327A3.989422804014327,3.989422804014327 0 1,1 0,3.989422804014327Z" style="fill: #ff7f0e;"></path><path transform="translate(195.8520801232666,159.8939393939394)" d="M0,3.989422804014327A3.989422804014327,3.989422804014327 0 1,1 0,-3.989422804014327A3.989422804014327,3.989422804014327 0 1,1 0,3.989422804014327Z" style="fill: #ff7f0e;"></path><path transform="translate(201.15254237288136,146.7878787878788)" d="M0,3.989422804014327A3.989422804014327,3.989422804014327 0 1,1 0,-3.989422804014327A3.989422804014327,3.989422804014327 0 1,1 0,3.989422804014327Z" style="fill: #ff7f0e;"></path><path transform="translate(179.95069337442214,212.3181818181818)" d="M0,3.989422804014327A3.989422804014327,3.989422804014327 0 1,1 0,-3.989422804014327A3.989422804014327,3.989422804014327 0 1,1 0,3.989422804014327Z" style="fill: #ff7f0e;"></path><path transform="translate(201.15254237288136,146.7878787878788)" d="M0,3.989422804014327A3.989422804014327,3.989422804014327 0 1,1 0,-3.989422804014327A3.989422804014327,3.989422804014327 0 1,1 0,3.989422804014327Z" style="fill: #ff7f0e;"></path><path transform="translate(169.3497688751926,199.2121212121212)" d="M0,3.989422804014327A3.989422804014327,3.989422804014327 0 1,1 0,-3.989422804014327A3.989422804014327,3.989422804014327 0 1,1 0,3.989422804014327Z" style="fill: #ff7f0e;"></path><path transform="translate(217.05392912172573,107.46969696969698)" d="M0,3.989422804014327A3.989422804014327,3.989422804014327 0 1,1 0,-3.989422804014327A3.989422804014327,3.989422804014327 0 1,1 0,3.989422804014327Z" style="fill: #ff7f0e;"></path><path transform="translate(174.6502311248074,173)" d="M0,3.989422804014327A3.989422804014327,3.989422804014327 0 1,1 0,-3.989422804014327A3.989422804014327,3.989422804014327 0 1,1 0,3.989422804014327Z" style="fill: #ff7f0e;"></path><path transform="translate(222.3543913713405,146.7878787878788)" d="M0,3.989422804014327A3.989422804014327,3.989422804014327 0 1,1 0,-3.989422804014327A3.989422804014327,3.989422804014327 0 1,1 0,3.989422804014327Z" style="fill: #ff7f0e;"></path><path transform="translate(211.75346687211092,186.1060606060606)" d="M0,3.989422804014327A3.989422804014327,3.989422804014327 0 1,1 0,-3.989422804014327A3.989422804014327,3.989422804014327 0 1,1 0,3.989422804014327Z" style="fill: #ff7f0e;"></path><path transform="translate(190.55161787365176,173)" d="M0,3.989422804014327A3.989422804014327,3.989422804014327 0 1,1 0,-3.989422804014327A3.989422804014327,3.989422804014327 0 1,1 0,3.989422804014327Z" style="fill: #ff7f0e;"></path><path transform="translate(195.8520801232666,159.8939393939394)" d="M0,3.989422804014327A3.989422804014327,3.989422804014327 0 1,1 0,-3.989422804014327A3.989422804014327,3.989422804014327 0 1,1 0,3.989422804014327Z" style="fill: #ff7f0e;"></path><path transform="translate(217.05392912172573,159.8939393939394)" d="M0,3.989422804014327A3.989422804014327,3.989422804014327 0 1,1 0,-3.989422804014327A3.989422804014327,3.989422804014327 0 1,1 0,3.989422804014327Z" style="fill: #ff7f0e;"></path><path transform="translate(227.6548536209553,120.57575757575758)" d="M0,3.989422804014327A3.989422804014327,3.989422804014327 0 1,1 0,-3.989422804014327A3.989422804014327,3.989422804014327 0 1,1 0,3.989422804014327Z" style="fill: #ff7f0e;"></path><path transform="translate(201.15254237288136,146.7878787878788)" d="M0,3.989422804014327A3.989422804014327,3.989422804014327 0 1,1 0,-3.989422804014327A3.989422804014327,3.989422804014327 0 1,1 0,3.989422804014327Z" style="fill: #ff7f0e;"></path><path transform="translate(148.14791987673343,212.3181818181818)" d="M0,3.989422804014327A3.989422804014327,3.989422804014327 0 1,1 0,-3.989422804014327A3.989422804014327,3.989422804014327 0 1,1 0,3.989422804014327Z" style="fill: #ff7f0e;"></path><path transform="translate(164.0493066255778,199.2121212121212)" d="M0,3.989422804014327A3.989422804014327,3.989422804014327 0 1,1 0,-3.989422804014327A3.989422804014327,3.989422804014327 0 1,1 0,3.989422804014327Z" style="fill: #ff7f0e;"></path><path transform="translate(158.74884437596302,212.3181818181818)" d="M0,3.989422804014327A3.989422804014327,3.989422804014327 0 1,1 0,-3.989422804014327A3.989422804014327,3.989422804014327 0 1,1 0,3.989422804014327Z" style="fill: #ff7f0e;"></path><path transform="translate(169.3497688751926,186.1060606060606)" d="M0,3.989422804014327A3.989422804014327,3.989422804014327 0 1,1 0,-3.989422804014327A3.989422804014327,3.989422804014327 0 1,1 0,3.989422804014327Z" style="fill: #ff7f0e;"></path><path transform="translate(232.9553158705701,133.6818181818182)" d="M0,3.989422804014327A3.989422804014327,3.989422804014327 0 1,1 0,-3.989422804014327A3.989422804014327,3.989422804014327 0 1,1 0,3.989422804014327Z" style="fill: #ff7f0e;"></path><path transform="translate(201.15254237288136,146.7878787878788)" d="M0,3.989422804014327A3.989422804014327,3.989422804014327 0 1,1 0,-3.989422804014327A3.989422804014327,3.989422804014327 0 1,1 0,3.989422804014327Z" style="fill: #ff7f0e;"></path><path transform="translate(201.15254237288136,133.6818181818182)" d="M0,3.989422804014327A3.989422804014327,3.989422804014327 0 1,1 0,-3.989422804014327A3.989422804014327,3.989422804014327 0 1,1 0,3.989422804014327Z" style="fill: #ff7f0e;"></path><path transform="translate(211.75346687211092,146.7878787878788)" d="M0,3.989422804014327A3.989422804014327,3.989422804014327 0 1,1 0,-3.989422804014327A3.989422804014327,3.989422804014327 0 1,1 0,3.989422804014327Z" style="fill: #ff7f0e;"></path><path transform="translate(195.8520801232666,173)" d="M0,3.989422804014327A3.989422804014327,3.989422804014327 0 1,1 0,-3.989422804014327A3.989422804014327,3.989422804014327 0 1,1 0,3.989422804014327Z" style="fill: #ff7f0e;"></path><path transform="translate(179.95069337442214,173)" d="M0,3.989422804014327A3.989422804014327,3.989422804014327 0 1,1 0,-3.989422804014327A3.989422804014327,3.989422804014327 0 1,1 0,3.989422804014327Z" style="fill: #ff7f0e;"></path><path transform="translate(174.6502311248074,173)" d="M0,3.989422804014327A3.989422804014327,3.989422804014327 0 1,1 0,-3.989422804014327A3.989422804014327,3.989422804014327 0 1,1 0,3.989422804014327Z" style="fill: #ff7f0e;"></path><path transform="translate(195.8520801232666,186.1060606060606)" d="M0,3.989422804014327A3.989422804014327,3.989422804014327 0 1,1 0,-3.989422804014327A3.989422804014327,3.989422804014327 0 1,1 0,3.989422804014327Z" style="fill: #ff7f0e;"></path><path transform="translate(206.4530046224961,159.8939393939394)" d="M0,3.989422804014327A3.989422804014327,3.989422804014327 0 1,1 0,-3.989422804014327A3.989422804014327,3.989422804014327 0 1,1 0,3.989422804014327Z" style="fill: #ff7f0e;"></path><path transform="translate(174.6502311248074,186.1060606060606)" d="M0,3.989422804014327A3.989422804014327,3.989422804014327 0 1,1 0,-3.989422804014327A3.989422804014327,3.989422804014327 0 1,1 0,3.989422804014327Z" style="fill: #ff7f0e;"></path><path transform="translate(137.54699537750383,212.3181818181818)" d="M0,3.989422804014327A3.989422804014327,3.989422804014327 0 1,1 0,-3.989422804014327A3.989422804014327,3.989422804014327 0 1,1 0,3.989422804014327Z" style="fill: #ff7f0e;"></path><path transform="translate(185.25115562403698,173)" d="M0,3.989422804014327A3.989422804014327,3.989422804014327 0 1,1 0,-3.989422804014327A3.989422804014327,3.989422804014327 0 1,1 0,3.989422804014327Z" style="fill: #ff7f0e;"></path><path transform="translate(185.25115562403698,186.1060606060606)" d="M0,3.989422804014327A3.989422804014327,3.989422804014327 0 1,1 0,-3.989422804014327A3.989422804014327,3.989422804014327 0 1,1 0,3.989422804014327Z" style="fill: #ff7f0e;"></path><path transform="translate(185.25115562403698,173)" d="M0,3.989422804014327A3.989422804014327,3.989422804014327 0 1,1 0,-3.989422804014327A3.989422804014327,3.989422804014327 0 1,1 0,3.989422804014327Z" style="fill: #ff7f0e;"></path><path transform="translate(190.55161787365176,173)" d="M0,3.989422804014327A3.989422804014327,3.989422804014327 0 1,1 0,-3.989422804014327A3.989422804014327,3.989422804014327 0 1,1 0,3.989422804014327Z" style="fill: #ff7f0e;"></path><path transform="translate(121.64560862865947,199.2121212121212)" d="M0,3.989422804014327A3.989422804014327,3.989422804014327 0 1,1 0,-3.989422804014327A3.989422804014327,3.989422804014327 0 1,1 0,3.989422804014327Z" style="fill: #ff7f0e;"></path><path transform="translate(179.95069337442214,173)" d="M0,3.989422804014327A3.989422804014327,3.989422804014327 0 1,1 0,-3.989422804014327A3.989422804014327,3.989422804014327 0 1,1 0,3.989422804014327Z" style="fill: #ff7f0e;"></path><path transform="translate(280.6594761171032,15.727272727272751)" d="M0,3.989422804014327A3.989422804014327,3.989422804014327 0 1,1 0,-3.989422804014327A3.989422804014327,3.989422804014327 0 1,1 0,3.989422804014327Z" style="fill: #2ca02c;"></path><path transform="translate(232.9553158705701,94.36363636363639)" d="M0,3.989422804014327A3.989422804014327,3.989422804014327 0 1,1 0,-3.989422804014327A3.989422804014327,3.989422804014327 0 1,1 0,3.989422804014327Z" style="fill: #2ca02c;"></path><path transform="translate(275.35901386748844,68.15151515151517)" d="M0,3.989422804014327A3.989422804014327,3.989422804014327 0 1,1 0,-3.989422804014327A3.989422804014327,3.989422804014327 0 1,1 0,3.989422804014327Z" style="fill: #2ca02c;"></path><path transform="translate(259.45762711864404,107.46969696969698)" d="M0,3.989422804014327A3.989422804014327,3.989422804014327 0 1,1 0,-3.989422804014327A3.989422804014327,3.989422804014327 0 1,1 0,3.989422804014327Z" style="fill: #2ca02c;"></path><path transform="translate(270.0585516178736,55.04545454545453)" d="M0,3.989422804014327A3.989422804014327,3.989422804014327 0 1,1 0,-3.989422804014327A3.989422804014327,3.989422804014327 0 1,1 0,3.989422804014327Z" style="fill: #2ca02c;"></path><path transform="translate(312.462249614792,68.15151515151517)" d="M0,3.989422804014327A3.989422804014327,3.989422804014327 0 1,1 0,-3.989422804014327A3.989422804014327,3.989422804014327 0 1,1 0,3.989422804014327Z" style="fill: #2ca02c;"></path><path transform="translate(201.15254237288136,120.57575757575758)" d="M0,3.989422804014327A3.989422804014327,3.989422804014327 0 1,1 0,-3.989422804014327A3.989422804014327,3.989422804014327 0 1,1 0,3.989422804014327Z" style="fill: #2ca02c;"></path><path transform="translate(296.5608628659476,107.46969696969698)" d="M0,3.989422804014327A3.989422804014327,3.989422804014327 0 1,1 0,-3.989422804014327A3.989422804014327,3.989422804014327 0 1,1 0,3.989422804014327Z" style="fill: #2ca02c;"></path><path transform="translate(270.0585516178736,107.46969696969698)" d="M0,3.989422804014327A3.989422804014327,3.989422804014327 0 1,1 0,-3.989422804014327A3.989422804014327,3.989422804014327 0 1,1 0,3.989422804014327Z" style="fill: #2ca02c;"></path><path transform="translate(285.959938366718,15.727272727272751)" d="M0,3.989422804014327A3.989422804014327,3.989422804014327 0 1,1 0,-3.989422804014327A3.989422804014327,3.989422804014327 0 1,1 0,3.989422804014327Z" style="fill: #2ca02c;"></path><path transform="translate(232.9553158705701,81.25757575757576)" d="M0,3.989422804014327A3.989422804014327,3.989422804014327 0 1,1 0,-3.989422804014327A3.989422804014327,3.989422804014327 0 1,1 0,3.989422804014327Z" style="fill: #2ca02c;"></path><path transform="translate(243.55624036979967,94.36363636363639)" d="M0,3.989422804014327A3.989422804014327,3.989422804014327 0 1,1 0,-3.989422804014327A3.989422804014327,3.989422804014327 0 1,1 0,3.989422804014327Z" style="fill: #2ca02c;"></path><path transform="translate(254.15716486902926,68.15151515151517)" d="M0,3.989422804014327A3.989422804014327,3.989422804014327 0 1,1 0,-3.989422804014327A3.989422804014327,3.989422804014327 0 1,1 0,3.989422804014327Z" style="fill: #2ca02c;"></path><path transform="translate(227.6548536209553,81.25757575757576)" d="M0,3.989422804014327A3.989422804014327,3.989422804014327 0 1,1 0,-3.989422804014327A3.989422804014327,3.989422804014327 0 1,1 0,3.989422804014327Z" style="fill: #2ca02c;"></path><path transform="translate(232.9553158705701,28.833333333333346)" d="M0,3.989422804014327A3.989422804014327,3.989422804014327 0 1,1 0,-3.989422804014327A3.989422804014327,3.989422804014327 0 1,1 0,3.989422804014327Z" style="fill: #2ca02c;"></path><path transform="translate(243.55624036979967,41.93939393939398)" d="M0,3.989422804014327A3.989422804014327,3.989422804014327 0 1,1 0,-3.989422804014327A3.989422804014327,3.989422804014327 0 1,1 0,3.989422804014327Z" style="fill: #2ca02c;"></path><path transform="translate(254.15716486902926,107.46969696969698)" d="M0,3.989422804014327A3.989422804014327,3.989422804014327 0 1,1 0,-3.989422804014327A3.989422804014327,3.989422804014327 0 1,1 0,3.989422804014327Z" style="fill: #2ca02c;"></path><path transform="translate(317.76271186440675,55.04545454545453)" d="M0,3.989422804014327A3.989422804014327,3.989422804014327 0 1,1 0,-3.989422804014327A3.989422804014327,3.989422804014327 0 1,1 0,3.989422804014327Z" style="fill: #2ca02c;"></path><path transform="translate(328.3636363636364,41.93939393939398)" d="M0,3.989422804014327A3.989422804014327,3.989422804014327 0 1,1 0,-3.989422804014327A3.989422804014327,3.989422804014327 0 1,1 0,3.989422804014327Z" style="fill: #2ca02c;"></path><path transform="translate(227.6548536209553,146.7878787878788)" d="M0,3.989422804014327A3.989422804014327,3.989422804014327 0 1,1 0,-3.989422804014327A3.989422804014327,3.989422804014327 0 1,1 0,3.989422804014327Z" style="fill: #2ca02c;"></path><path transform="translate(264.7580893682589,41.93939393939398)" d="M0,3.989422804014327A3.989422804014327,3.989422804014327 0 1,1 0,-3.989422804014327A3.989422804014327,3.989422804014327 0 1,1 0,3.989422804014327Z" style="fill: #2ca02c;"></path><path transform="translate(222.3543913713405,81.25757575757576)" d="M0,3.989422804014327A3.989422804014327,3.989422804014327 0 1,1 0,-3.989422804014327A3.989422804014327,3.989422804014327 0 1,1 0,3.989422804014327Z" style="fill: #2ca02c;"></path><path transform="translate(317.76271186440675,81.25757575757576)" d="M0,3.989422804014327A3.989422804014327,3.989422804014327 0 1,1 0,-3.989422804014327A3.989422804014327,3.989422804014327 0 1,1 0,3.989422804014327Z" style="fill: #2ca02c;"></path><path transform="translate(222.3543913713405,107.46969696969698)" d="M0,3.989422804014327A3.989422804014327,3.989422804014327 0 1,1 0,-3.989422804014327A3.989422804014327,3.989422804014327 0 1,1 0,3.989422804014327Z" style="fill: #2ca02c;"></path><path transform="translate(264.7580893682589,68.15151515151517)" d="M0,3.989422804014327A3.989422804014327,3.989422804014327 0 1,1 0,-3.989422804014327A3.989422804014327,3.989422804014327 0 1,1 0,3.989422804014327Z" style="fill: #2ca02c;"></path><path transform="translate(280.6594761171032,107.46969696969698)" d="M0,3.989422804014327A3.989422804014327,3.989422804014327 0 1,1 0,-3.989422804014327A3.989422804014327,3.989422804014327 0 1,1 0,3.989422804014327Z" style="fill: #2ca02c;"></path><path transform="translate(217.05392912172573,107.46969696969698)" d="M0,3.989422804014327A3.989422804014327,3.989422804014327 0 1,1 0,-3.989422804014327A3.989422804014327,3.989422804014327 0 1,1 0,3.989422804014327Z" style="fill: #2ca02c;"></path><path transform="translate(222.3543913713405,107.46969696969698)" d="M0,3.989422804014327A3.989422804014327,3.989422804014327 0 1,1 0,-3.989422804014327A3.989422804014327,3.989422804014327 0 1,1 0,3.989422804014327Z" style="fill: #2ca02c;"></path><path transform="translate(259.45762711864404,68.15151515151517)" d="M0,3.989422804014327A3.989422804014327,3.989422804014327 0 1,1 0,-3.989422804014327A3.989422804014327,3.989422804014327 0 1,1 0,3.989422804014327Z" style="fill: #2ca02c;"></path><path transform="translate(270.0585516178736,133.6818181818182)" d="M0,3.989422804014327A3.989422804014327,3.989422804014327 0 1,1 0,-3.989422804014327A3.989422804014327,3.989422804014327 0 1,1 0,3.989422804014327Z" style="fill: #2ca02c;"></path><path transform="translate(285.959938366718,94.36363636363639)" d="M0,3.989422804014327A3.989422804014327,3.989422804014327 0 1,1 0,-3.989422804014327A3.989422804014327,3.989422804014327 0 1,1 0,3.989422804014327Z" style="fill: #2ca02c;"></path><path transform="translate(301.8613251155624,81.25757575757576)" d="M0,3.989422804014327A3.989422804014327,3.989422804014327 0 1,1 0,-3.989422804014327A3.989422804014327,3.989422804014327 0 1,1 0,3.989422804014327Z" style="fill: #2ca02c;"></path><path transform="translate(259.45762711864404,55.04545454545453)" d="M0,3.989422804014327A3.989422804014327,3.989422804014327 0 1,1 0,-3.989422804014327A3.989422804014327,3.989422804014327 0 1,1 0,3.989422804014327Z" style="fill: #2ca02c;"></path><path transform="translate(232.9553158705701,146.7878787878788)" d="M0,3.989422804014327A3.989422804014327,3.989422804014327 0 1,1 0,-3.989422804014327A3.989422804014327,3.989422804014327 0 1,1 0,3.989422804014327Z" style="fill: #2ca02c;"></path><path transform="translate(259.45762711864404,159.8939393939394)" d="M0,3.989422804014327A3.989422804014327,3.989422804014327 0 1,1 0,-3.989422804014327A3.989422804014327,3.989422804014327 0 1,1 0,3.989422804014327Z" style="fill: #2ca02c;"></path><path transform="translate(285.959938366718,41.93939393939398)" d="M0,3.989422804014327A3.989422804014327,3.989422804014327 0 1,1 0,-3.989422804014327A3.989422804014327,3.989422804014327 0 1,1 0,3.989422804014327Z" style="fill: #2ca02c;"></path><path transform="translate(259.45762711864404,28.833333333333346)" d="M0,3.989422804014327A3.989422804014327,3.989422804014327 0 1,1 0,-3.989422804014327A3.989422804014327,3.989422804014327 0 1,1 0,3.989422804014327Z" style="fill: #2ca02c;"></path><path transform="translate(254.15716486902926,107.46969696969698)" d="M0,3.989422804014327A3.989422804014327,3.989422804014327 0 1,1 0,-3.989422804014327A3.989422804014327,3.989422804014327 0 1,1 0,3.989422804014327Z" style="fill: #2ca02c;"></path><path transform="translate(217.05392912172573,107.46969696969698)" d="M0,3.989422804014327A3.989422804014327,3.989422804014327 0 1,1 0,-3.989422804014327A3.989422804014327,3.989422804014327 0 1,1 0,3.989422804014327Z" style="fill: #2ca02c;"></path><path transform="translate(248.8567026194145,68.15151515151517)" d="M0,3.989422804014327A3.989422804014327,3.989422804014327 0 1,1 0,-3.989422804014327A3.989422804014327,3.989422804014327 0 1,1 0,3.989422804014327Z" style="fill: #2ca02c;"></path><path transform="translate(259.45762711864404,28.833333333333346)" d="M0,3.989422804014327A3.989422804014327,3.989422804014327 0 1,1 0,-3.989422804014327A3.989422804014327,3.989422804014327 0 1,1 0,3.989422804014327Z" style="fill: #2ca02c;"></path><path transform="translate(232.9553158705701,41.93939393939398)" d="M0,3.989422804014327A3.989422804014327,3.989422804014327 0 1,1 0,-3.989422804014327A3.989422804014327,3.989422804014327 0 1,1 0,3.989422804014327Z" style="fill: #2ca02c;"></path><path transform="translate(232.9553158705701,94.36363636363639)" d="M0,3.989422804014327A3.989422804014327,3.989422804014327 0 1,1 0,-3.989422804014327A3.989422804014327,3.989422804014327 0 1,1 0,3.989422804014327Z" style="fill: #2ca02c;"></path><path transform="translate(275.35901386748844,41.93939393939398)" d="M0,3.989422804014327A3.989422804014327,3.989422804014327 0 1,1 0,-3.989422804014327A3.989422804014327,3.989422804014327 0 1,1 0,3.989422804014327Z" style="fill: #2ca02c;"></path><path transform="translate(264.7580893682589,15.727272727272751)" d="M0,3.989422804014327A3.989422804014327,3.989422804014327 0 1,1 0,-3.989422804014327A3.989422804014327,3.989422804014327 0 1,1 0,3.989422804014327Z" style="fill: #2ca02c;"></path><path transform="translate(238.25577812018489,41.93939393939398)" d="M0,3.989422804014327A3.989422804014327,3.989422804014327 0 1,1 0,-3.989422804014327A3.989422804014327,3.989422804014327 0 1,1 0,3.989422804014327Z" style="fill: #2ca02c;"></path><path transform="translate(227.6548536209553,94.36363636363639)" d="M0,3.989422804014327A3.989422804014327,3.989422804014327 0 1,1 0,-3.989422804014327A3.989422804014327,3.989422804014327 0 1,1 0,3.989422804014327Z" style="fill: #2ca02c;"></path><path transform="translate(238.25577812018489,81.25757575757576)" d="M0,3.989422804014327A3.989422804014327,3.989422804014327 0 1,1 0,-3.989422804014327A3.989422804014327,3.989422804014327 0 1,1 0,3.989422804014327Z" style="fill: #2ca02c;"></path><path transform="translate(248.8567026194145,41.93939393939398)" d="M0,3.989422804014327A3.989422804014327,3.989422804014327 0 1,1 0,-3.989422804014327A3.989422804014327,3.989422804014327 0 1,1 0,3.989422804014327Z" style="fill: #2ca02c;"></path><path transform="translate(232.9553158705701,107.46969696969698)" d="M0,3.989422804014327A3.989422804014327,3.989422804014327 0 1,1 0,-3.989422804014327A3.989422804014327,3.989422804014327 0 1,1 0,3.989422804014327Z" style="fill: #2ca02c;"></path></g><g id="g37" class="type-group"><g transform="translate(355.5,0.5)"><rect class="background" width="63" height="61" style="pointer-events: none; fill: none;"></rect><g id="g38" class="type-text" style="pointer-events: none;"><text x="3" y="3" text-anchor="start" dy=".9em" style="font-weight: bold; font-style: normal; font-variant: normal; font-size: 11px; line-height: normal; font-family: sans-serif; fill: #000000; opacity: 1;">Species</text></g><g id="g39" class="type-symbol" style="pointer-events: none;"><path transform="translate(7.5,23)" d="M0,3.989422804014327A3.989422804014327,3.989422804014327 0 1,1 0,-3.989422804014327A3.989422804014327,3.989422804014327 0 1,1 0,3.989422804014327Z" style="fill: #1f77b4; stroke: #888888; stroke-width: 1px; opacity: 1;"></path><path transform="translate(7.5,38)" d="M0,3.989422804014327A3.989422804014327,3.989422804014327 0 1,1 0,-3.989422804014327A3.989422804014327,3.989422804014327 0 1,1 0,3.989422804014327Z" style="fill: #ff7f0e; stroke: #888888; stroke-width: 1px; opacity: 1;"></path><path transform="translate(7.5,53)" d="M0,3.989422804014327A3.989422804014327,3.989422804014327 0 1,1 0,-3.989422804014327A3.989422804014327,3.989422804014327 0 1,1 0,3.989422804014327Z" style="fill: #2ca02c; stroke: #888888; stroke-width: 1px; opacity: 1;"></path></g><g id="g40" class="type-text" style="pointer-events: none;"><text x="16" y="23" text-anchor="start" dy=".35em" style="font-style: normal; font-variant: normal; font-weight: normal; font-size: 10px; line-height: normal; font-family: sans-serif; fill: #000000; opacity: 1;">setosa</text><text x="16" y="38" text-anchor="start" dy=".35em" style="font-style: normal; font-variant: normal; font-weight: normal; font-size: 10px; line-height: normal; font-family: sans-serif; fill: #000000; opacity: 1;">versicolor</text><text x="16" y="53" text-anchor="start" dy=".35em" style="font-style: normal; font-variant: normal; font-weight: normal; font-size: 10px; line-height: normal; font-family: sans-serif; fill: #000000; opacity: 1;">virginica</text></g></g></g></g></g></g></svg>